<svg xmlns="http://www.w3.org/2000/svg" xmlns:xlink="http://www.w3.org/1999/xlink" width="500" zoomAndPan="magnify" viewBox="0 0 375 374.999991" height="500" preserveAspectRatio="xMidYMid meet" version="1.0"><path fill="#2775c9" d="M 187.5 375 C 224.582031 375 260.835938 364.003906 291.667969 343.398438 C 322.503906 322.796875 346.535156 293.515625 360.726562 259.253906 C 374.917969 224.992188 378.632812 187.292969 371.394531 150.921875 C 364.164062 114.550781 346.304688 81.140625 320.082031 54.917969 C 293.859375 28.695312 260.449219 10.835938 224.078125 3.601562 C 187.707031 -3.632812 150.007812 0.0820312 115.746094 14.273438 C 81.484375 28.464844 52.203125 52.496094 31.597656 83.332031 C 10.996094 114.164062 0 150.414062 0 187.5 C 0 237.226562 19.753906 284.917969 54.917969 320.082031 C 90.082031 355.246094 137.773438 375 187.5 375 Z M 187.5 375 " fill-opacity="1" fill-rule="nonzero"/><path fill="#ffffff" d="M 239.136719 217.296875 C 239.136719 189.953125 222.496094 180.734375 190.304688 176.320312 C 166.519531 172.882812 161.949219 167.296875 161.949219 156.203125 C 161.949219 145.109375 169.996094 138.195312 185.386719 138.195312 C 199.410156 138.195312 207.496094 143.078125 210.816406 154.367188 C 211.167969 155.601562 211.910156 156.691406 212.929688 157.472656 C 213.949219 158.253906 215.195312 158.683594 216.480469 158.703125 L 228.785156 158.703125 C 229.585938 158.71875 230.382812 158.558594 231.121094 158.230469 C 231.855469 157.90625 232.507812 157.421875 233.03125 156.8125 C 233.558594 156.203125 233.945312 155.488281 234.164062 154.714844 C 234.378906 153.941406 234.421875 153.128906 234.292969 152.335938 C 230.386719 134.484375 218.355469 123.742188 199.488281 120.382812 L 199.488281 101.554688 C 199.488281 100 198.871094 98.511719 197.769531 97.410156 C 196.671875 96.3125 195.179688 95.695312 193.628906 95.695312 L 181.910156 95.695312 C 180.355469 95.695312 178.863281 96.3125 177.765625 97.410156 C 176.667969 98.511719 176.050781 100 176.050781 101.554688 L 176.050781 119.71875 C 152.613281 123 137.808594 138.46875 137.808594 158.3125 C 137.808594 183.976562 153.433594 193.9375 186.085938 198.351562 C 208.316406 201.984375 214.644531 206.789062 214.644531 219.40625 C 214.644531 232.023438 203.898438 240.5 188.746094 240.5 C 168.316406 240.5 161.402344 231.554688 159.097656 219.953125 C 158.828125 218.621094 158.113281 217.421875 157.066406 216.554688 C 156.023438 215.6875 154.710938 215.207031 153.355469 215.1875 L 139.996094 215.1875 C 139.199219 215.183594 138.410156 215.351562 137.683594 215.683594 C 136.960938 216.015625 136.316406 216.5 135.796875 217.105469 C 135.28125 217.714844 134.902344 218.425781 134.691406 219.195312 C 134.476562 219.960938 134.433594 220.769531 134.566406 221.554688 C 137.964844 241.085938 150.503906 255.382812 176.050781 258.820312 L 176.050781 277.335938 C 176.050781 278.890625 176.667969 280.382812 177.765625 281.480469 C 178.863281 282.578125 180.355469 283.195312 181.910156 283.195312 L 193.628906 283.195312 C 195.179688 283.195312 196.671875 282.578125 197.769531 281.480469 C 198.871094 280.382812 199.488281 278.890625 199.488281 277.335938 L 199.488281 258.820312 C 223.707031 254.992188 239.136719 238.273438 239.136719 217.296875 Z M 239.136719 217.296875 " fill-opacity="1" fill-rule="nonzero"/><path fill="#ffffff" d="M 147.570312 299.523438 C 125 291.28125 105.507812 276.300781 91.738281 256.613281 C 77.964844 236.921875 70.578125 213.472656 70.578125 189.445312 C 70.578125 165.417969 77.964844 141.972656 91.738281 122.28125 C 105.507812 102.589844 125 87.609375 147.570312 79.367188 C 149.015625 78.734375 150.257812 77.703125 151.148438 76.398438 C 152.039062 75.09375 152.542969 73.566406 152.609375 71.984375 L 152.609375 61.046875 C 152.703125 60.078125 152.539062 59.101562 152.136719 58.21875 C 151.734375 57.332031 151.105469 56.566406 150.316406 56 C 149.523438 55.433594 148.597656 55.089844 147.625 54.992188 C 146.660156 54.898438 145.683594 55.058594 144.796875 55.460938 C 116.375 64.519531 91.566406 82.382812 73.964844 106.46875 C 56.363281 130.554688 46.875 159.613281 46.875 189.445312 C 46.875 219.277344 56.363281 248.335938 73.964844 272.421875 C 91.566406 296.507812 116.375 314.371094 144.796875 323.429688 C 145.683594 323.832031 146.660156 323.992188 147.625 323.898438 C 148.597656 323.804688 149.523438 323.457031 150.316406 322.890625 C 151.105469 322.324219 151.734375 321.5625 152.136719 320.675781 C 152.539062 319.789062 152.703125 318.8125 152.609375 317.84375 L 152.609375 306.90625 C 152.542969 305.328125 152.039062 303.796875 151.148438 302.492188 C 150.257812 301.1875 149.015625 300.160156 147.570312 299.523438 Z M 147.570312 299.523438 " fill-opacity="1" fill-rule="nonzero"/><path fill="#ffffff" d="M 230.730469 55.460938 C 229.84375 55.058594 228.871094 54.898438 227.902344 54.992188 C 226.933594 55.089844 226.007812 55.433594 225.214844 56 C 224.421875 56.566406 223.792969 57.332031 223.390625 58.21875 C 222.988281 59.101562 222.824219 60.078125 222.917969 61.046875 L 222.917969 71.984375 C 222.984375 73.566406 223.488281 75.09375 224.382812 76.398438 C 225.273438 77.703125 226.511719 78.734375 227.957031 79.367188 C 250.527344 87.609375 270.019531 102.589844 283.792969 122.28125 C 297.5625 141.972656 304.949219 165.417969 304.949219 189.445312 C 304.949219 213.472656 297.5625 236.921875 283.792969 256.613281 C 270.019531 276.300781 250.527344 291.28125 227.957031 299.523438 C 226.464844 300.09375 225.179688 301.105469 224.277344 302.425781 C 223.378906 303.742188 222.902344 305.308594 222.917969 306.90625 L 222.917969 317.84375 C 222.824219 318.8125 222.988281 319.789062 223.390625 320.675781 C 223.792969 321.5625 224.421875 322.324219 225.214844 322.890625 C 226.007812 323.457031 226.933594 323.804688 227.902344 323.898438 C 228.871094 323.992188 229.84375 323.832031 230.730469 323.429688 C 259.15625 314.371094 283.960938 296.507812 301.5625 272.421875 C 319.167969 248.335938 328.652344 219.277344 328.652344 189.445312 C 328.652344 159.613281 319.167969 130.554688 301.5625 106.46875 C 283.960938 82.382812 259.15625 64.519531 230.730469 55.460938 Z M 230.730469 55.460938 " fill-opacity="1" fill-rule="nonzero"/></svg>