<svg xmlns="http://www.w3.org/2000/svg" xmlns:xlink="http://www.w3.org/1999/xlink" width="1024" zoomAndPan="magnify" viewBox="0 0 768 767.999994" height="1024" preserveAspectRatio="xMidYMid meet" version="1.0"><defs><clipPath id="58696ec20e"><path d="M 384 0 C 171.921875 0 0 171.921875 0 384 C 0 596.078125 171.921875 768 384 768 C 596.078125 768 768 596.078125 768 384 C 768 171.921875 596.078125 0 384 0 Z M 384 0 " clip-rule="nonzero"/></clipPath><clipPath id="68a3339818"><path d="M 48.25 48.25 L 719.5 48.25 L 719.5 719.5 L 48.25 719.5 Z M 48.25 48.25 " clip-rule="nonzero"/></clipPath><clipPath id="830e7e701a"><path d="M 48.25 123.25 L 48.25 644.75 C 48.25 686.171875 81.828125 719.75 123.25 719.75 L 644.75 719.75 C 686.171875 719.75 719.75 686.171875 719.75 644.75 L 719.75 123.25 C 719.75 81.828125 686.171875 48.25 644.75 48.25 L 123.25 48.25 C 81.828125 48.25 48.25 81.828125 48.25 123.25 Z M 48.25 123.25 " clip-rule="nonzero"/></clipPath><clipPath id="77c6fd49b3"><path d="M 213 215 L 526 215 L 526 529 L 213 529 Z M 213 215 " clip-rule="nonzero"/></clipPath><clipPath id="eec5081d32"><path d="M 48.25 123.25 L 48.25 644.75 C 48.25 686.171875 81.828125 719.75 123.25 719.75 L 644.75 719.75 C 686.171875 719.75 719.75 686.171875 719.75 644.75 L 719.75 123.25 C 719.75 81.828125 686.171875 48.25 644.75 48.25 L 123.25 48.25 C 81.828125 48.25 48.25 81.828125 48.25 123.25 Z M 48.25 123.25 " clip-rule="nonzero"/></clipPath></defs><g clip-path="url(#58696ec20e)"><rect x="-76.8" width="921.6" fill="#ff66c4" y="-76.799999" height="921.599993" fill-opacity="1"/><path stroke-linecap="butt" transform="matrix(0.75, 0, 0, 0.75, 0.000003, 0.00002)" fill="none" stroke-linejoin="miter" d="M 512.000021 -0.0000266667 C 229.229174 -0.0000266667 -0.000004 229.229151 -0.000004 511.999999 C -0.000004 794.770846 229.229174 1024.000024 512.000021 1024.000024 C 794.770869 1024.000024 1024.000047 794.770846 1024.000047 511.999999 C 1024.000047 229.229151 794.770869 -0.0000266667 512.000021 -0.0000266667 Z M 512.000021 -0.0000266667 " stroke="#454545" stroke-width="16" stroke-opacity="1" stroke-miterlimit="4"/></g><g clip-path="url(#68a3339818)"><g clip-path="url(#830e7e701a)"><path fill="#583e97" d="M 719.746094 384 C 719.746094 389.492188 719.613281 394.984375 719.34375 400.472656 C 719.074219 405.960938 718.667969 411.4375 718.128906 416.90625 C 717.589844 422.375 716.917969 427.828125 716.113281 433.261719 C 715.304688 438.699219 714.367188 444.109375 713.296875 449.5 C 712.222656 454.890625 711.019531 460.25 709.683594 465.578125 C 708.347656 470.910156 706.882812 476.203125 705.289062 481.460938 C 703.695312 486.71875 701.972656 491.933594 700.121094 497.109375 C 698.269531 502.28125 696.292969 507.40625 694.1875 512.484375 C 692.085938 517.558594 689.859375 522.582031 687.511719 527.550781 C 685.160156 532.515625 682.691406 537.421875 680.101562 542.269531 C 677.511719 547.113281 674.804688 551.894531 671.980469 556.609375 C 669.15625 561.320312 666.214844 565.960938 663.164062 570.53125 C 660.109375 575.097656 656.945312 579.589844 653.675781 584.003906 C 650.402344 588.417969 647.019531 592.746094 643.535156 596.996094 C 640.050781 601.242188 636.460938 605.402344 632.769531 609.472656 C 629.082031 613.542969 625.292969 617.523438 621.410156 621.410156 C 617.523438 625.292969 613.542969 629.082031 609.472656 632.769531 C 605.402344 636.460938 601.242188 640.050781 596.996094 643.535156 C 592.746094 647.019531 588.417969 650.402344 584.003906 653.675781 C 579.589844 656.945312 575.097656 660.109375 570.53125 663.164062 C 565.960938 666.214844 561.320312 669.15625 556.609375 671.980469 C 551.894531 674.804688 547.113281 677.511719 542.269531 680.101562 C 537.421875 682.691406 532.515625 685.160156 527.550781 687.511719 C 522.582031 689.859375 517.558594 692.085938 512.484375 694.1875 C 507.40625 696.292969 502.28125 698.269531 497.109375 700.121094 C 491.933594 701.972656 486.71875 703.695312 481.460938 705.289062 C 476.203125 706.882812 470.910156 708.347656 465.578125 709.683594 C 460.25 711.019531 454.890625 712.222656 449.5 713.296875 C 444.109375 714.367188 438.699219 715.304688 433.261719 716.113281 C 427.828125 716.917969 422.375 717.589844 416.90625 718.128906 C 411.4375 718.667969 405.960938 719.074219 400.472656 719.34375 C 394.984375 719.613281 389.492188 719.746094 384 719.746094 C 378.503906 719.746094 373.011719 719.613281 367.523438 719.34375 C 362.035156 719.074219 356.558594 718.667969 351.089844 718.128906 C 345.621094 717.589844 340.167969 716.917969 334.734375 716.113281 C 329.296875 715.304688 323.886719 714.367188 318.496094 713.296875 C 313.109375 712.222656 307.75 711.019531 302.417969 709.683594 C 297.089844 708.347656 291.792969 706.882812 286.535156 705.289062 C 281.277344 703.695312 276.0625 701.972656 270.886719 700.121094 C 265.714844 698.269531 260.589844 696.292969 255.511719 694.1875 C 250.4375 692.085938 245.414062 689.859375 240.449219 687.511719 C 235.480469 685.160156 230.574219 682.691406 225.726562 680.101562 C 220.882812 677.511719 216.101562 674.804688 211.390625 671.980469 C 206.675781 669.15625 202.035156 666.214844 197.46875 663.164062 C 192.898438 660.109375 188.40625 656.945312 183.992188 653.675781 C 179.582031 650.402344 175.25 647.019531 171.003906 643.535156 C 166.753906 640.050781 162.59375 636.460938 158.523438 632.769531 C 154.453125 629.082031 150.472656 625.292969 146.589844 621.410156 C 142.703125 617.523438 138.914062 613.542969 135.226562 609.472656 C 131.535156 605.402344 127.949219 601.242188 124.460938 596.996094 C 120.976562 592.746094 117.597656 588.417969 114.324219 584.003906 C 111.050781 579.589844 107.886719 575.097656 104.835938 570.53125 C 101.78125 565.960938 98.84375 561.320312 96.019531 556.609375 C 93.191406 551.894531 90.484375 547.113281 87.894531 542.269531 C 85.304688 537.421875 82.835938 532.515625 80.484375 527.550781 C 78.136719 522.582031 75.910156 517.558594 73.808594 512.484375 C 71.707031 507.40625 69.726562 502.28125 67.878906 497.109375 C 66.027344 491.933594 64.304688 486.71875 62.707031 481.460938 C 61.113281 476.203125 59.648438 470.910156 58.3125 465.578125 C 56.976562 460.25 55.773438 454.890625 54.703125 449.5 C 53.628906 444.109375 52.691406 438.699219 51.882812 433.261719 C 51.078125 427.828125 50.40625 422.375 49.867188 416.90625 C 49.328125 411.4375 48.925781 405.960938 48.65625 400.472656 C 48.386719 394.984375 48.25 389.492188 48.25 384 C 48.25 378.503906 48.386719 373.011719 48.65625 367.523438 C 48.925781 362.035156 49.328125 356.558594 49.867188 351.089844 C 50.40625 345.621094 51.078125 340.167969 51.882812 334.734375 C 52.691406 329.296875 53.628906 323.886719 54.703125 318.496094 C 55.773438 313.109375 56.976562 307.75 58.3125 302.417969 C 59.648438 297.089844 61.113281 291.792969 62.707031 286.535156 C 64.304688 281.277344 66.027344 276.0625 67.878906 270.886719 C 69.726562 265.714844 71.707031 260.589844 73.808594 255.511719 C 75.910156 250.4375 78.136719 245.414062 80.484375 240.449219 C 82.835938 235.480469 85.304688 230.574219 87.894531 225.726562 C 90.484375 220.882812 93.191406 216.101562 96.019531 211.390625 C 98.84375 206.675781 101.78125 202.035156 104.835938 197.46875 C 107.886719 192.898438 111.050781 188.40625 114.324219 183.992188 C 117.597656 179.582031 120.976562 175.25 124.460938 171.003906 C 127.949219 166.753906 131.535156 162.59375 135.226562 158.523438 C 138.914062 154.453125 142.703125 150.472656 146.589844 146.589844 C 150.472656 142.703125 154.453125 138.914062 158.523438 135.226562 C 162.59375 131.535156 166.753906 127.949219 171.003906 124.460938 C 175.25 120.976562 179.582031 117.597656 183.992188 114.324219 C 188.40625 111.050781 192.898438 107.886719 197.46875 104.835938 C 202.035156 101.78125 206.675781 98.84375 211.390625 96.019531 C 216.101562 93.191406 220.882812 90.484375 225.726562 87.894531 C 230.574219 85.304688 235.480469 82.835938 240.449219 80.484375 C 245.414062 78.136719 250.4375 75.910156 255.511719 73.808594 C 260.589844 71.707031 265.714844 69.726562 270.886719 67.878906 C 276.0625 66.027344 281.277344 64.304688 286.535156 62.707031 C 291.792969 61.113281 297.089844 59.648438 302.417969 58.3125 C 307.75 56.976562 313.109375 55.773438 318.496094 54.703125 C 323.886719 53.628906 329.296875 52.691406 334.734375 51.882812 C 340.167969 51.078125 345.621094 50.40625 351.089844 49.867188 C 356.558594 49.328125 362.035156 48.925781 367.523438 48.65625 C 373.011719 48.386719 378.503906 48.25 384 48.25 C 389.492188 48.25 394.984375 48.386719 400.472656 48.65625 C 405.960938 48.925781 411.4375 49.328125 416.90625 49.867188 C 422.375 50.40625 427.828125 51.078125 433.261719 51.882812 C 438.699219 52.691406 444.109375 53.628906 449.5 54.703125 C 454.890625 55.773438 460.25 56.976562 465.578125 58.3125 C 470.910156 59.648438 476.203125 61.113281 481.460938 62.707031 C 486.71875 64.304688 491.933594 66.027344 497.109375 67.878906 C 502.28125 69.726562 507.40625 71.707031 512.484375 73.808594 C 517.558594 75.910156 522.582031 78.136719 527.550781 80.484375 C 532.515625 82.835938 537.421875 85.304688 542.269531 87.894531 C 547.113281 90.484375 551.894531 93.191406 556.609375 96.019531 C 561.320312 98.84375 565.960938 101.78125 570.53125 104.835938 C 575.097656 107.886719 579.589844 111.050781 584.003906 114.324219 C 588.417969 117.597656 592.746094 120.976562 596.996094 124.460938 C 601.242188 127.949219 605.402344 131.535156 609.472656 135.226562 C 613.542969 138.914062 617.523438 142.703125 621.410156 146.589844 C 625.292969 150.472656 629.082031 154.453125 632.769531 158.523438 C 636.460938 162.59375 640.050781 166.753906 643.535156 171.003906 C 647.019531 175.25 650.402344 179.582031 653.675781 183.992188 C 656.945312 188.40625 660.109375 192.898438 663.164062 197.46875 C 666.214844 202.035156 669.15625 206.675781 671.980469 211.390625 C 674.804688 216.101562 677.511719 220.882812 680.101562 225.726562 C 682.691406 230.574219 685.160156 235.480469 687.511719 240.449219 C 689.859375 245.414062 692.085938 250.4375 694.1875 255.511719 C 696.292969 260.589844 698.269531 265.714844 700.121094 270.886719 C 701.972656 276.0625 703.695312 281.277344 705.289062 286.535156 C 706.882812 291.792969 708.347656 297.089844 709.683594 302.417969 C 711.019531 307.75 712.222656 313.109375 713.296875 318.496094 C 714.367188 323.886719 715.304688 329.296875 716.113281 334.734375 C 716.917969 340.167969 717.589844 345.621094 718.128906 351.089844 C 718.667969 356.558594 719.074219 362.035156 719.34375 367.523438 C 719.613281 373.011719 719.746094 378.503906 719.746094 384 Z M 719.746094 384 " fill-opacity="1" fill-rule="nonzero"/></g></g><g clip-path="url(#77c6fd49b3)"><g clip-path="url(#eec5081d32)"><path fill="#ffffff" d="M 525.878906 528.683594 L 476.867188 528.683594 L 445.035156 410.28125 L 376.601562 528.699219 L 321.886719 528.699219 L 427.660156 345.402344 L 410.636719 281.765625 L 268.007812 528.738281 L 213.265625 528.738281 L 394.019531 215.652344 L 441.941406 215.652344 L 462.925781 293.4375 L 512.371094 293.4375 L 478.613281 352.140625 Z M 525.878906 528.683594 " fill-opacity="1" fill-rule="nonzero"/></g></g></svg>