<svg xmlns="http://www.w3.org/2000/svg" xmlns:xlink="http://www.w3.org/1999/xlink" width="500" zoomAndPan="magnify" viewBox="0 0 375 374.999991" height="500" preserveAspectRatio="xMidYMid meet" version="1.0"><defs><clipPath id="340e5d9f4b"><path d="M 13.933594 13.933594 L 361.066406 13.933594 L 361.066406 361.066406 L 13.933594 361.066406 Z M 13.933594 13.933594 " clip-rule="nonzero"/></clipPath><clipPath id="a6bdb9c0b5"><path d="M 187.5 13.933594 C 91.640625 13.933594 13.933594 91.640625 13.933594 187.5 C 13.933594 283.359375 91.640625 361.066406 187.5 361.066406 C 283.359375 361.066406 361.066406 283.359375 361.066406 187.5 C 361.066406 91.640625 283.359375 13.933594 187.5 13.933594 Z M 187.5 13.933594 " clip-rule="nonzero"/></clipPath><clipPath id="71b595cba1"><path d="M 0.933594 0.933594 L 348.066406 0.933594 L 348.066406 348.066406 L 0.933594 348.066406 Z M 0.933594 0.933594 " clip-rule="nonzero"/></clipPath><clipPath id="000dcda26b"><path d="M 174.5 0.933594 C 78.640625 0.933594 0.933594 78.640625 0.933594 174.5 C 0.933594 270.359375 78.640625 348.066406 174.5 348.066406 C 270.359375 348.066406 348.066406 270.359375 348.066406 174.5 C 348.066406 78.640625 270.359375 0.933594 174.5 0.933594 Z M 174.5 0.933594 " clip-rule="nonzero"/></clipPath><clipPath id="41a4d39d16"><rect x="0" width="349" y="0" height="349"/></clipPath><clipPath id="e43f30cf5d"><path d="M 33.410156 33.410156 L 341.660156 33.410156 L 341.660156 341.660156 L 33.410156 341.660156 Z M 33.410156 33.410156 " clip-rule="nonzero"/></clipPath></defs><g clip-path="url(#340e5d9f4b)"><g clip-path="url(#a6bdb9c0b5)"><g transform="matrix(1, 0, 0, 1, 13, 13)"><g clip-path="url(#41a4d39d16)"><g clip-path="url(#71b595cba1)"><g clip-path="url(#000dcda26b)"><path fill="#ff66c4" d="M 0.933594 0.933594 L 348.066406 0.933594 L 348.066406 348.066406 L 0.933594 348.066406 Z M 0.933594 0.933594 " fill-opacity="1" fill-rule="nonzero"/></g></g></g></g></g></g><g clip-path="url(#e43f30cf5d)"><path fill="#2775c9" d="M 187.535156 341.660156 C 218.015625 341.660156 247.816406 332.621094 273.160156 315.683594 C 298.507812 298.75 318.261719 274.679688 329.925781 246.515625 C 341.589844 218.351562 344.644531 187.363281 338.695312 157.464844 C 332.75 127.570312 318.070312 100.105469 296.515625 78.550781 C 274.960938 56.996094 247.5 42.316406 217.601562 36.371094 C 187.703125 30.421875 156.714844 33.476562 128.554688 45.140625 C 100.390625 56.804688 76.320312 76.5625 59.382812 101.90625 C 42.449219 127.253906 33.410156 157.050781 33.410156 187.535156 C 33.410156 228.410156 49.648438 267.613281 78.550781 296.515625 C 107.457031 325.421875 146.65625 341.660156 187.535156 341.660156 Z M 187.535156 341.660156 " fill-opacity="1" fill-rule="nonzero"/></g><path fill="#ffffff" d="M 229.980469 212.027344 C 229.980469 189.550781 216.300781 181.972656 189.839844 178.34375 C 170.289062 175.519531 166.53125 170.925781 166.53125 161.808594 C 166.53125 152.6875 173.144531 147.003906 185.796875 147.003906 C 197.324219 147.003906 203.96875 151.019531 206.699219 160.300781 C 206.988281 161.316406 207.597656 162.210938 208.4375 162.851562 C 209.273438 163.496094 210.300781 163.847656 211.355469 163.863281 L 221.46875 163.863281 C 222.128906 163.878906 222.785156 163.746094 223.390625 163.476562 C 223.992188 163.207031 224.53125 162.808594 224.960938 162.308594 C 225.394531 161.808594 225.710938 161.222656 225.890625 160.585938 C 226.070312 159.949219 226.105469 159.28125 225.996094 158.628906 C 222.785156 143.957031 212.894531 135.125 197.386719 132.363281 L 197.386719 116.886719 C 197.386719 115.609375 196.878906 114.382812 195.976562 113.480469 C 195.074219 112.578125 193.847656 112.070312 192.570312 112.070312 L 182.9375 112.070312 C 181.660156 112.070312 180.4375 112.578125 179.53125 113.480469 C 178.628906 114.382812 178.121094 115.609375 178.121094 116.886719 L 178.121094 131.816406 C 158.855469 134.515625 146.6875 147.230469 146.6875 163.542969 C 146.6875 184.636719 159.53125 192.824219 186.375 196.453125 C 204.644531 199.441406 209.847656 203.390625 209.847656 213.761719 C 209.847656 224.132812 201.015625 231.101562 188.558594 231.101562 C 171.765625 231.101562 166.082031 223.746094 164.1875 214.210938 C 163.964844 213.117188 163.378906 212.128906 162.519531 211.417969 C 161.660156 210.703125 160.582031 210.308594 159.464844 210.292969 L 148.484375 210.292969 C 147.828125 210.289062 147.179688 210.425781 146.585938 210.699219 C 145.988281 210.972656 145.460938 211.371094 145.035156 211.871094 C 144.609375 212.371094 144.300781 212.957031 144.125 213.585938 C 143.949219 214.21875 143.914062 214.878906 144.023438 215.527344 C 146.816406 231.582031 157.121094 243.332031 178.121094 246.160156 L 178.121094 261.378906 C 178.121094 262.65625 178.628906 263.882812 179.53125 264.785156 C 180.4375 265.6875 181.660156 266.195312 182.9375 266.195312 L 192.570312 266.195312 C 193.847656 266.195312 195.074219 265.6875 195.976562 264.785156 C 196.878906 263.882812 197.386719 262.65625 197.386719 261.378906 L 197.386719 246.160156 C 217.296875 243.011719 229.980469 229.269531 229.980469 212.027344 Z M 229.980469 212.027344 " fill-opacity="1" fill-rule="nonzero"/><path fill="#ffffff" d="M 154.710938 279.617188 C 136.160156 272.84375 120.136719 260.527344 108.816406 244.34375 C 97.496094 228.160156 91.425781 208.886719 91.425781 189.132812 C 91.425781 169.382812 97.496094 150.109375 108.816406 133.925781 C 120.136719 117.738281 136.160156 105.425781 154.710938 98.648438 C 155.902344 98.128906 156.917969 97.28125 157.652344 96.210938 C 158.386719 95.136719 158.800781 93.878906 158.855469 92.582031 L 158.855469 83.589844 C 158.929688 82.792969 158.796875 81.992188 158.464844 81.265625 C 158.132812 80.535156 157.617188 79.90625 156.96875 79.441406 C 156.316406 78.976562 155.554688 78.691406 154.757812 78.613281 C 153.960938 78.535156 153.160156 78.667969 152.433594 79 C 129.066406 86.445312 108.675781 101.128906 94.207031 120.925781 C 79.738281 140.726562 71.941406 164.613281 71.941406 189.132812 C 71.941406 213.65625 79.738281 237.542969 94.207031 257.339844 C 108.675781 277.136719 129.066406 291.824219 152.433594 299.269531 C 153.160156 299.601562 153.960938 299.730469 154.757812 299.65625 C 155.554688 299.578125 156.316406 299.292969 156.96875 298.824219 C 157.617188 298.359375 158.132812 297.730469 158.464844 297.003906 C 158.796875 296.277344 158.929688 295.472656 158.855469 294.675781 L 158.855469 285.6875 C 158.800781 284.390625 158.386719 283.132812 157.652344 282.058594 C 156.917969 280.988281 155.902344 280.140625 154.710938 279.617188 Z M 154.710938 279.617188 " fill-opacity="1" fill-rule="nonzero"/><path fill="#ffffff" d="M 223.070312 79 C 222.34375 78.667969 221.539062 78.535156 220.746094 78.613281 C 219.949219 78.691406 219.1875 78.976562 218.535156 79.441406 C 217.882812 79.90625 217.367188 80.535156 217.035156 81.265625 C 216.707031 81.992188 216.570312 82.792969 216.648438 83.589844 L 216.648438 92.582031 C 216.703125 93.878906 217.117188 95.136719 217.851562 96.210938 C 218.582031 97.28125 219.601562 98.128906 220.792969 98.648438 C 239.34375 105.425781 255.367188 117.738281 266.6875 133.925781 C 278.007812 150.109375 284.078125 169.382812 284.078125 189.132812 C 284.078125 208.886719 278.007812 228.160156 266.6875 244.34375 C 255.367188 260.527344 239.34375 272.84375 220.792969 279.617188 C 219.5625 280.085938 218.507812 280.917969 217.765625 282 C 217.027344 283.085938 216.636719 284.371094 216.648438 285.6875 L 216.648438 294.675781 C 216.570312 295.472656 216.707031 296.277344 217.035156 297.003906 C 217.367188 297.730469 217.882812 298.359375 218.535156 298.824219 C 219.1875 299.292969 219.949219 299.578125 220.746094 299.65625 C 221.539062 299.730469 222.34375 299.601562 223.070312 299.269531 C 246.433594 291.824219 266.824219 277.136719 281.296875 257.339844 C 295.765625 237.542969 303.5625 213.65625 303.5625 189.132812 C 303.5625 164.613281 295.765625 140.726562 281.296875 120.925781 C 266.824219 101.128906 246.433594 86.445312 223.070312 79 Z M 223.070312 79 " fill-opacity="1" fill-rule="nonzero"/></svg>